<?xml version="1.0" encoding="utf-8"?>
<svg xmlns="http://www.w3.org/2000/svg" height="20" width="20" viewBox="0 0 20 20">
  <g>
    <path id="path1" transform="rotate(270,10,10) translate(1.5999997138977,2.63450792400074) scale(0.525000111758729,0.525000111758729)  " fill="#C6C9CC" d="M25.425269,19.295357C24.573287,19.293343 23.790288,19.616347 23.290292,20.260371 22.319306,21.509385 22.778302,23.490439 24.315278,24.686444 25.852267,25.880465 27.885257,25.837464 28.85525,24.589457 29.826234,23.339434 29.367238,21.359389 27.831256,20.163384 27.086266,19.584362 26.225266,19.296364 25.425269,19.295357z M6.5744242,19.295357C5.773436,19.297371 4.9134421,19.58537 4.1684532,20.163384 2.631463,21.359389 2.1724672,23.339434 3.1434521,24.589457 4.1144528,25.837464 6.1474256,25.880465 7.6844158,24.686444 9.2214059,23.490439 9.6804018,21.509385 8.7094163,20.260371 8.208414,19.617354 7.4254155,19.293343 6.5744242,19.295357z M24.907283,16.790307C26.347274,16.793297 27.89725,17.312319 29.238242,18.35433 32.005219,20.50537 32.831216,24.072449 31.083228,26.320475 29.335242,28.568531 25.675267,28.646536 22.908292,26.495497 22.043309,25.82248 21.36831,25.012469 20.90231,24.146456L20.815307,23.976439 16.874345,20.035359 19.918326,16.991299 21.161311,18.359335 21.164302,18.40734 21.238307,18.318348C22.141299,17.299319,23.469291,16.787316,24.907283,16.790307z M15.994347,13.191244C15.114364,13.191244 14.400365,13.906253 14.400365,14.786273 14.400365,15.666295 15.114364,16.380295 15.994347,16.380295 16.874345,16.380295 17.588342,15.666295 17.588342,14.786273 17.588342,13.906253 16.874345,13.191244 15.994347,13.191244z M26.201264,0C28.674251,5.6071247,23.672294,11.488211,23.672294,11.488211L11.185394,23.975432 11.097398,24.146456C10.631398,25.012469 9.9564008,25.82248 9.091402,26.495497 6.3244261,28.646536 2.6644523,28.568531 0.91648085,26.320475 -0.83150624,24.072449 -0.004517113,20.50537 2.7624588,18.35433 4.1024441,17.312319 5.6524348,16.793297 7.0924253,16.790307 8.5304174,16.787316 9.8583946,17.299319 10.761387,18.318348L10.835391,18.40734 10.838397,18.359335 12.487386,16.545308C12.597385,12.917252,13.998375,12.284246,13.998375,12.284246z M5.7984294,0L15.128356,9.3931727 13.225371,11.308215C12.753375,11.626213,11.889383,12.462227,11.476393,14.46327L11.448393,14.609269 8.3264093,11.488211C8.3264093,11.488211,3.3244507,5.6071247,5.7984294,0z" />
  </g>
</svg>

